<?xml version="1.0" encoding="UTF-8" standalone="no"?>
<!-- Created with Inkscape (http://www.inkscape.org/) -->

<svg
   width="196.94662mm"
   height="103.67078mm"
   viewBox="0 0 196.94663 103.67078"
   version="1.1"
   id="svg5"
   inkscape:version="1.1 (c68e22c387, 2021-05-23)"
   sodipodi:docname="typhoon.svg"
   inkscape:export-filename="/home/alexeyt/code/robo/3260S-TYPHOON/typhoon.png"
   inkscape:export-xdpi="400"
   inkscape:export-ydpi="400"
   xmlns:inkscape="http://www.inkscape.org/namespaces/inkscape"
   xmlns:sodipodi="http://sodipodi.sourceforge.net/DTD/sodipodi-0.dtd"
   xmlns="http://www.w3.org/2000/svg"
   xmlns:svg="http://www.w3.org/2000/svg">
  <sodipodi:namedview
     id="namedview7"
     pagecolor="#ffffff"
     bordercolor="#666666"
     borderopacity="1.0"
     inkscape:pageshadow="2"
     inkscape:pageopacity="0.0"
     inkscape:pagecheckerboard="0"
     inkscape:document-units="mm"
     showgrid="false"
     inkscape:object-paths="false"
     inkscape:snap-intersection-paths="true"
     inkscape:snap-global="false"
     inkscape:zoom="1.5597183"
     inkscape:cx="372.1826"
     inkscape:cy="195.86871"
     inkscape:window-width="1900"
     inkscape:window-height="1016"
     inkscape:window-x="0"
     inkscape:window-y="0"
     inkscape:window-maximized="1"
     inkscape:current-layer="layer1"
     inkscape:snap-bbox="true"
     inkscape:snap-bbox-midpoints="true"
     inkscape:snap-page="false" />
  <defs
     id="defs2">
    <clipPath
       clipPathUnits="userSpaceOnUse"
       id="clipPath15230">
      <rect
         style="fill:#ffffff;fill-opacity:1;stroke:none;stroke-width:4.79761;stroke-linecap:round;stroke-linejoin:round"
         id="rect15232"
         width="67.195641"
         height="40.041065"
         x="40.134758"
         y="256.22971" />
    </clipPath>
  </defs>
  <g
     inkscape:label="Layer 1"
     inkscape:groupmode="layer"
     id="layer1"
     transform="translate(-19.465733,-230.85979)">
    <rect
       style="fill:#3b3f3f;fill-opacity:1;stroke-width:7.7645;stroke-linecap:round;stroke-linejoin:round"
       id="rect2691"
       width="196.94662"
       height="103.67078"
       x="19.465734"
       y="230.85979"
       inkscape:export-filename="/home/alexeyt/code/robo/3260S-TYPHOON/typhoon.png"
       inkscape:export-xdpi="400"
       inkscape:export-ydpi="400" />
    <path
       style="fill:#ffffff;stroke:none;stroke-width:0.264583px;stroke-linecap:butt;stroke-linejoin:miter;stroke-opacity:1;fill-opacity:1"
       d="m 130.00303,316.31276 11.72602,-4.23529 0.001,4.44265 z"
       id="path6940" />
    <path
       style="fill:#ffffff;fill-opacity:1;stroke:none;stroke-width:0.264583px;stroke-linecap:butt;stroke-linejoin:miter;stroke-opacity:1"
       d="m 153.93094,298.79877 -11.72602,4.23529 -10e-4,-4.44265 z"
       id="path14038" />
    <path
       style="fill:#ffffff;fill-opacity:1;stroke:none;stroke-width:0.264583px;stroke-linecap:butt;stroke-linejoin:miter;stroke-opacity:1"
       d="m 181.34157,298.82312 -11.72602,4.23529 -0.001,-4.44265 z"
       id="path14040" />
    <path
       style="fill:#ffffff;fill-opacity:1;stroke:none;stroke-width:0.264583px;stroke-linecap:butt;stroke-linejoin:miter;stroke-opacity:1"
       d="m 158.74122,316.2486 11.72602,-4.23529 0.001,4.44265 z"
       id="path14042" />
    <text
       xml:space="preserve"
       style="font-style:normal;font-variant:normal;font-weight:normal;font-stretch:normal;font-size:26.0562px;line-height:1.25;font-family:Ethnocentric;-inkscape-font-specification:'Ethnocentric, Normal';font-variant-ligatures:normal;font-variant-caps:normal;font-variant-numeric:normal;font-variant-east-asian:normal;fill:#ffffff;fill-opacity:1;stroke:none;stroke-width:0.651407"
       x="30.15572"
       y="316.26929"
       id="text4051"><tspan
         sodipodi:role="line"
         id="tspan4049"
         style="font-style:normal;font-variant:normal;font-weight:normal;font-stretch:normal;font-size:26.0562px;font-family:Ethnocentric;-inkscape-font-specification:'Ethnocentric, Normal';font-variant-ligatures:normal;font-variant-caps:normal;font-variant-numeric:normal;font-variant-east-asian:normal;fill:#ffffff;stroke-width:0.651407;fill-opacity:1"
         x="30.15572"
         y="316.26929">TYPHOON</tspan></text>
    <path
       id="path70284"
       style="fill:#e5b800;fill-opacity:1;stroke:none;stroke-width:0.264583px;stroke-linecap:butt;stroke-linejoin:miter;stroke-opacity:1"
       d="m 157.88988,248.83453 c -0.90107,-0.002 -1.80196,0.0318 -2.69803,0.0946 -2.58041,0.18064 -5.1869,0.52414 -7.64553,1.32808 -2.8073,0.91796 -5.68652,2.02481 -7.93956,3.93464 -2.09277,1.77398 -4.26847,3.98721 -4.81315,6.67608 -0.58541,2.88996 0.41936,6.11709 1.97301,8.62325 1.38456,2.2334 3.72966,3.86008 6.10092,4.99245 4.16099,1.98704 8.93232,2.7464 13.54284,2.81895 4.1459,0.0652 8.41345,-0.58227 12.25197,-2.15025 2.8876,-1.17954 5.63399,-2.97367 7.71374,-5.29838 1.08622,-1.21418 1.909,-2.72963 2.30322,-4.31033 0.41921,-1.68092 0.47173,-3.53298 -0.01,-5.1971 -0.60667,-2.0965 -1.92417,-4.01843 -3.48609,-5.54282 -1.84545,-1.80111 -4.27355,-2.94885 -6.64662,-3.9579 -1.95974,-0.83329 -4.05666,-1.36836 -6.16242,-1.68568 -1.48038,-0.22308 -2.9827,-0.32292 -4.48448,-0.32556 z m -1.25832,2.25981 c 0.19108,-0.002 0.3826,-5.5e-4 0.57361,0.004 1.55672,0.0339 3.10757,0.27423 4.63641,0.56948 1.36881,0.26435 2.74616,0.5585 4.04213,1.07228 1.23049,0.48784 2.43511,1.09309 3.49332,1.88826 1.24538,0.93582 2.59701,1.92966 3.27836,3.33055 0.48224,0.99142 0.59333,2.19132 0.42219,3.28042 -0.17603,1.12022 -0.77333,2.16692 -1.44797,3.07836 -0.78104,1.05521 -1.81447,1.93503 -2.9192,2.6443 -1.73357,1.11297 -3.68005,1.93831 -5.67872,2.43755 -1.98775,0.49649 -4.07641,0.50827 -6.12521,0.51626 -1.82361,0.007 -3.66039,-0.091 -5.45445,-0.41807 -1.60794,-0.29313 -3.24403,-0.64519 -4.70669,-1.37459 -1.27788,-0.63722 -2.38376,-1.59393 -3.43338,-2.56212 -0.57243,-0.528 -1.1263,-1.09633 -1.54358,-1.7539 -0.43918,-0.69205 -0.84002,-1.44784 -0.97875,-2.25567 -0.17277,-1.00604 -0.084,-2.078 0.21136,-3.05511 0.24874,-0.82301 0.72361,-1.58262 1.27692,-2.24069 0.83316,-0.9909 1.87989,-1.81546 2.99465,-2.47375 1.19205,-0.70394 2.5398,-1.11725 3.8623,-1.52652 1.14273,-0.35364 2.31648,-0.61658 3.49901,-0.79685 1.32211,-0.20155 2.66009,-0.35169 3.99769,-0.3638 z" />
    <path
       style="fill:#e5b800;fill-opacity:1;stroke:none;stroke-width:0.264583px;stroke-linecap:butt;stroke-linejoin:miter;stroke-opacity:1"
       d="m 135.19516,255.26594 -31.78989,17.88694 29.76409,-12.36708 z"
       id="path61283"
       sodipodi:nodetypes="cccc" />
    <path
       style="fill:#e5b800;fill-opacity:1;stroke:none;stroke-width:0.264583px;stroke-linecap:butt;stroke-linejoin:miter;stroke-opacity:1"
       d="M 131.53442,267.70628 89.031342,280.83005 134.23635,269.84943 Z"
       id="path61678"
       sodipodi:nodetypes="cccc" />
    <path
       style="fill:#e5b800;fill-opacity:1;stroke:none;stroke-width:0.264583px;stroke-linecap:butt;stroke-linejoin:miter;stroke-opacity:1"
       d="m 136.27581,273.19689 -31.72848,6.30404 35.98371,-4.10493 z"
       id="path62784"
       sodipodi:nodetypes="cccc" />
    <path
       style="fill:#008c9e;fill-opacity:1;stroke-width:0.124583"
       d="m 68.300844,265.1656 c 2.53304,0.0638 2.664198,3.22971 1.051206,4.58636 -1.579326,2.67287 -3.569266,5.12954 -4.693341,8.05119 -1.031605,-0.89493 -0.387117,-3.21377 -0.465845,-4.67434 0.272049,-2.59377 0.651856,-5.50221 2.628881,-7.39439 0.412868,-0.34492 0.938129,-0.55963 1.479099,-0.56882 z m 15.436563,0.30228 c 5.168785,-0.54473 10.91044,0.97316 14.65218,4.44418 1.23221,1.14306 1.821123,4.70189 1.821123,4.70189 0,0 -4.851301,-4.98379 -8.396876,-5.25487 -0.742688,-0.24217 -2.327548,0.16551 -2.327548,0.16551 0,0 1.403235,0.99985 2.02389,1.59306 1.199868,1.14681 2.101377,1.87356 3.253454,3.76944 0.386828,0.55142 0.640579,1.34112 0.640579,1.34112 0,0 -3.663875,-2.43828 -5.761388,-2.55402 -4.905253,-0.27067 -9.353291,-0.75585 -14.048963,4.45416 -3.155156,3.28153 -3.575901,8.38979 -1.872428,12.47506 1.439483,3.6762 7.284158,4.67836 9.601778,1.29546 1.585088,-1.85198 0.08936,-4.15655 -0.475433,-5.79694 1.933783,0.22671 3.920975,1.17388 5.375706,2.50061 1.875553,1.80737 2.388348,4.82945 1.001434,7.07772 -1.920794,3.71484 -6.667187,4.7896 -10.514268,4.21445 -5.907065,-0.93668 -11.452178,-4.32856 -14.764571,-9.34484 -3.393558,-4.85835 -5.168939,-11.37124 -3.068764,-17.10425 0.06908,-0.96543 1.738797,-2.95974 1.093584,-0.83688 -0.87319,5.0772 0.278685,10.82021 4.140658,14.44777 -0.259189,-2.50082 -0.478406,-5.02486 0.04377,-7.50859 1.252453,-6.0866 6.29687,-10.86486 12.093762,-12.75211 1.776647,-0.6423 3.640011,-0.96953 5.488317,-1.32793 z m -25.347217,9.39583 c -2.001434,6.4815 0.711289,13.48263 4.968791,18.44122 4.404912,5.04696 10.588177,8.9954 17.404233,9.41471 5.343312,0.40952 11.005051,-3.05365 12.221954,-8.43398 0.845849,-3.72032 -1.667319,-7.55944 -5.070061,-8.97707 -0.846829,-0.98826 -3.954875,-1.08743 -3.493766,-2.13738 2.851415,-1.03756 5.932709,0.4197 8.216896,2.1196 3.673166,2.75598 4.361238,8.05851 2.760365,12.1411 -1.281582,3.67966 -4.35875,6.64136 -8.135484,7.65384 -6.144563,1.90762 -12.766631,-0.14151 -17.994468,-3.52805 -4.809693,-3.09487 -9.040217,-7.38483 -11.379798,-12.65453 -1.671977,-3.70721 -2.336602,-8.06983 -0.701381,-11.91275 0.06222,-0.29509 1.345655,-2.82097 1.202719,-2.12671 z m 11.100864,26.73745 c 0.400724,0.12679 0.193521,-0.35767 0,0 z M 55.129872,290.74251 c 1.93548,1.78409 2.646052,4.53743 4.530764,6.35136 -1.734404,0.30009 -3.656046,-1.29343 -5.264205,-2.05683 -2.367841,-1.01899 -2.098319,-4.47595 0.733441,-4.29453 z m 3.683319,8.85078 c 1.077657,0.13408 2.599726,2.62092 0.501151,1.81405 -1.797923,0.76924 -3.434771,-2.58352 -0.821565,-2.04165 0.108968,0.0714 0.213312,0.1524 0.320414,0.2276 z m 6.941501,2.3908 c 1.209043,0.96068 4.370127,2.51215 4.006482,3.6198 -1.878181,0.15062 -5.921292,-0.32301 -5.115748,-2.97974 0.218219,-0.38909 0.647102,-0.68924 1.109266,-0.64006 z"
       id="path14969"
       clip-path="url(#clipPath15230)"
       sodipodi:nodetypes="ccccccsacccaccacccccccccccccssccccccccccccccccccccccccccc" />
    <g
       id="g77766"
       style="fill:#e5b800;fill-opacity:1;stroke:none"
       transform="translate(12.20764,-3.1677858)">
      <path
         style="fill:#e5b800;fill-opacity:1;stroke:none;stroke-width:0.264583px;stroke-linecap:butt;stroke-linejoin:miter;stroke-opacity:1"
         d="m 134.68656,261.27496 0.5429,-3.85726 1.39047,0.85977 -0.3456,2.81701 4.907,-0.29397 0.92162,0.69779 -6.28901,0.45194 z"
         id="path77677" />
      <path
         style="fill:#e5b800;fill-opacity:1;stroke:none;stroke-width:0.264583px;stroke-linecap:butt;stroke-linejoin:miter;stroke-opacity:1"
         d="m 140.99011,263.65764 3.00939,1.69399 0.75458,-0.023 0.37249,-0.0586 -0.0239,-0.498 -2.97055,-1.64639 0.13585,-0.32763 0.80871,-0.3558 c 0,0 2.45453,1.60102 2.68949,1.7381 0.23496,0.13707 1.05088,0.14026 1.05088,0.14026 l 0.17015,-0.58109 -2.89824,-1.70914 0.50541,-0.69895 3.26682,1.85993 0.96129,-0.009 -0.0678,-0.71989 -2.68043,-1.42776 -0.51516,-0.18488 -1.14509,0.0306 -1.07358,0.40773 -0.3228,0.63162 -0.96548,0.32684 -0.76505,0.38181 -0.3035,0.45854 z"
         id="path77679" />
      <path
         style="fill:#e5b800;fill-opacity:1;stroke:none;stroke-width:0.264583px;stroke-linecap:butt;stroke-linejoin:miter;stroke-opacity:1"
         d="m 143.85087,266.37308 4.05107,0.43492 -0.43853,-2.13228 1.66584,0.8209 0.35435,1.5186 2.80808,0.23754 1.29756,1.03071 -3.89548,-0.51297 0.77789,2.4058 -1.72171,-0.59192 -0.46232,-1.80578 -2.9016,-0.1551 z"
         id="path77681" />
    </g>
  </g>
</svg>
